<svg width="23" height="23" viewBox="0 0 23 23" fill="none" xmlns="http://www.w3.org/2000/svg">
<path d="M18.5038 13.5C18.5057 13.8058 18.4128 14.1047 18.2379 14.3555C18.0629 14.6063 17.8146 14.7968 17.5269 14.9006L12.6913 16.6875L10.9101 21.5269C10.8046 21.8134 10.6137 22.0608 10.3633 22.2355C10.1128 22.4101 9.8148 22.5038 9.50944 22.5038C9.20407 22.5038 8.90606 22.4101 8.6556 22.2355C8.40514 22.0608 8.2143 21.8134 8.10881 21.5269L6.31631 16.6875L1.47694 14.9062C1.19037 14.8008 0.943055 14.6099 0.76836 14.3595C0.593666 14.109 0.5 13.811 0.5 13.5056C0.5 13.2003 0.593666 12.9022 0.76836 12.6518C0.943055 12.4013 1.19037 12.2105 1.47694 12.105L6.31631 10.3125L8.09756 5.47312C8.20305 5.18656 8.39389 4.93924 8.64435 4.76455C8.89481 4.58985 9.19282 4.49619 9.49819 4.49619C9.80355 4.49619 10.1016 4.58985 10.352 4.76455C10.6025 4.93924 10.7933 5.18656 10.8988 5.47312L12.6913 10.3125L17.5307 12.0938C17.8185 12.1986 18.0667 12.3901 18.241 12.642C18.4153 12.8939 18.5072 13.1937 18.5038 13.5ZM13.2538 4.5H14.7538V6C14.7538 6.19891 14.8328 6.38968 14.9735 6.53033C15.1141 6.67098 15.3049 6.75 15.5038 6.75C15.7027 6.75 15.8935 6.67098 16.0341 6.53033C16.1748 6.38968 16.2538 6.19891 16.2538 6V4.5H17.7538C17.9527 4.5 18.1435 4.42098 18.2841 4.28033C18.4248 4.13968 18.5038 3.94891 18.5038 3.75C18.5038 3.55109 18.4248 3.36032 18.2841 3.21967C18.1435 3.07902 17.9527 3 17.7538 3H16.2538V1.5C16.2538 1.30109 16.1748 1.11032 16.0341 0.96967C15.8935 0.829018 15.7027 0.75 15.5038 0.75C15.3049 0.75 15.1141 0.829018 14.9735 0.96967C14.8328 1.11032 14.7538 1.30109 14.7538 1.5V3H13.2538C13.0549 3 12.8641 3.07902 12.7235 3.21967C12.5828 3.36032 12.5038 3.55109 12.5038 3.75C12.5038 3.94891 12.5828 4.13968 12.7235 4.28033C12.8641 4.42098 13.0549 4.5 13.2538 4.5ZM21.5038 7.5H20.7538V6.75C20.7538 6.55109 20.6748 6.36032 20.5341 6.21967C20.3935 6.07902 20.2027 6 20.0038 6C19.8049 6 19.6141 6.07902 19.4735 6.21967C19.3328 6.36032 19.2538 6.55109 19.2538 6.75V7.5H18.5038C18.3049 7.5 18.1141 7.57902 17.9735 7.71967C17.8328 7.86032 17.7538 8.05109 17.7538 8.25C17.7538 8.44891 17.8328 8.63968 17.9735 8.78033C18.1141 8.92098 18.3049 9 18.5038 9H19.2538V9.75C19.2538 9.94891 19.3328 10.1397 19.4735 10.2803C19.6141 10.421 19.8049 10.5 20.0038 10.5C20.2027 10.5 20.3935 10.421 20.5341 10.2803C20.6748 10.1397 20.7538 9.94891 20.7538 9.75V9H21.5038C21.7027 9 21.8935 8.92098 22.0341 8.78033C22.1748 8.63968 22.2538 8.44891 22.2538 8.25C22.2538 8.05109 22.1748 7.86032 22.0341 7.71967C21.8935 7.57902 21.7027 7.5 21.5038 7.5Z" fill="url(#paint0_radial_2855_3378)"/>
<defs>
<radialGradient id="paint0_radial_2855_3378" cx="0" cy="0" r="1" gradientTransform="matrix(8.25 12 -10.8665 31.163 5.75586 6)" gradientUnits="userSpaceOnUse">
<stop stop-color="#FDA345"/>
<stop offset="1" stop-color="#BBA2FE"/>
</radialGradient>
</defs>
</svg>
